<svg width="484" height="205" viewBox="0 0 484 205" fill="none" xmlns="http://www.w3.org/2000/svg">
<path fill-rule="evenodd" clip-rule="evenodd" d="M199 135.538V150.045H199.137C199.046 151.495 199 152.962 199 154.441C199 177.136 209.851 196.618 225.333 205H259.342C268.53 200.026 276.087 191.143 280.713 180C292.321 177.777 301 168.857 301 158.19C301 149.109 294.709 141.294 285.676 137.8V135.538H199ZM285.676 146.596V150.045H285.539C285.63 151.495 285.676 152.962 285.676 154.441C285.676 160.072 285.008 165.505 283.767 170.619C289.002 168.79 292.746 163.916 292.746 158.19C292.746 153.188 289.888 148.836 285.676 146.596Z" fill="#D99441"/>
<path d="M284.926 136.077C284.926 136.44 284.731 136.86 284.211 137.336C283.691 137.81 282.897 138.291 281.828 138.763C279.693 139.707 276.572 140.569 272.677 141.297C264.896 142.751 254.125 143.654 242.213 143.654C230.301 143.654 219.53 142.751 211.749 141.297C207.854 140.569 204.733 139.707 202.598 138.763C201.529 138.291 200.734 137.81 200.215 137.336C199.695 136.86 199.5 136.44 199.5 136.077C199.5 135.714 199.695 135.294 200.215 134.818C200.734 134.344 201.529 133.863 202.598 133.39C204.733 132.447 207.854 131.585 211.749 130.857C219.53 129.403 230.301 128.5 242.213 128.5C254.125 128.5 264.896 129.403 272.677 130.857C276.572 131.585 279.693 132.447 281.828 133.39C282.897 133.863 283.691 134.344 284.211 134.818C284.731 135.294 284.926 135.714 284.926 136.077Z" fill="#0B1C26" stroke="#D99441"/>
<path fill-rule="evenodd" clip-rule="evenodd" d="M219.646 96.9645L219.954 96.9645C219.909 96.6576 219.869 96.3502 219.834 96.0425C220.299 93.8283 220.865 91.6163 221.535 89.4133L224.58 79.3895L225.591 76.0603C234.942 56.946 229.116 33.2647 212.027 19C218.675 34.0565 219.731 51.8302 214.499 69.0514L211.454 79.0752L210.442 82.4046C201.092 101.519 206.918 125.2 224.006 139.465C218.327 126.602 216.729 111.755 219.646 96.9645Z" fill="#446173"/>
<path fill-rule="evenodd" clip-rule="evenodd" d="M243.646 96.9645L243.954 96.9645C243.909 96.6576 243.869 96.3502 243.834 96.0425C244.299 93.8283 244.865 91.6163 245.535 89.4133L248.58 79.3895L249.591 76.0603C258.942 56.946 253.116 33.2647 236.027 19C242.675 34.0565 243.731 51.8302 238.499 69.0514L235.454 79.0752L234.442 82.4046C225.092 101.519 230.918 125.2 248.006 139.465C242.327 126.602 240.729 111.755 243.646 96.9645Z" fill="#446173"/>
<path fill-rule="evenodd" clip-rule="evenodd" d="M267.646 96.9645H267.954C267.909 96.6576 267.869 96.3502 267.834 96.0425C268.299 93.8283 268.865 91.6163 269.535 89.4133L272.58 79.3895L273.591 76.0603C282.942 56.946 277.116 33.2647 260.027 19C266.675 34.0565 267.731 51.8302 262.499 69.0514L259.454 79.0752L258.442 82.4046C249.092 101.519 254.918 125.2 272.006 139.465C266.327 126.602 264.729 111.755 267.646 96.9645Z" fill="#446173"/>
<path d="M17.6471 151.286L21.6926 153.307L18.6208 159.94L34.6508 167.946L32.1934 173.253L16.1634 165.247L13.0774 171.911L9.03188 169.89L17.6471 151.286Z" fill="#D99441"/>
<path d="M34.4398 122.633L53.0373 135.19L49.9344 140.147L31.3369 127.59L34.4398 122.633ZM26.7908 134.852L45.3883 147.41L42.2854 152.367L23.6879 139.809L26.7908 134.852ZM40.351 129.904L44.0987 132.435L36.3054 144.885L32.5578 142.354L40.351 129.904Z" fill="#D99441"/>
<path d="M49.6945 102.44C51.3932 100.374 53.1852 99.1931 55.0706 98.8974C56.9533 98.5692 58.6747 99.097 60.2347 100.481C61.9473 102 62.7851 103.727 62.7481 105.662C62.711 107.598 61.8432 109.598 60.1444 111.664L60.0278 112.287L57.199 115.728L63.3288 121.165L59.6794 125.604L42.8923 110.712L49.6945 102.44ZM56.7304 109.771C57.4502 108.896 57.8205 108.089 57.8413 107.35C57.862 106.612 57.4994 105.912 56.7533 105.25C56.0242 104.603 55.3101 104.348 54.611 104.485C53.912 104.622 53.2026 105.128 52.4828 106.003L49.8483 109.207L54.0959 112.975L56.7304 109.771ZM59.8271 107.931L72.7007 109.768L68.5978 114.757L57.5977 112.675L59.8271 107.931Z" fill="#D99441"/>
<path d="M78.9558 102.962L64.1021 86.1418L76.7546 74.0867L79.7478 77.4762L71.3292 85.4973L74.345 88.9124L81.0405 82.533L83.8536 85.7187L77.1582 92.098L80.1964 95.5385L88.935 87.2125L91.9282 90.6021L78.9558 102.962Z" fill="#D99441"/>
<path d="M99.2139 84.2682L86.4139 65.8369L100.399 55.3569L102.978 59.0711L93.6731 66.0441L96.2719 69.7863L103.673 64.2405L106.097 67.7313L98.6961 73.2771L101.314 77.0471L110.973 69.809L113.553 73.5232L99.2139 84.2682Z" fill="#D99441"/>
<path d="M134.534 60.3968L125.31 39.9401L135.124 35.1643C137.62 33.9749 139.673 33.5678 141.284 33.9431C142.885 34.2976 144.087 35.3635 144.888 37.1405C145.41 38.2976 145.525 39.4635 145.234 40.638C144.935 41.7918 144.143 42.8196 142.859 43.7214L142.873 43.7524C144.516 43.2052 145.914 43.1924 147.069 43.7139C148.235 44.2049 149.097 45.0703 149.656 46.3101C150.448 48.0665 150.451 49.7278 149.666 51.2941C148.872 52.8397 147.252 54.2076 144.806 55.3979L134.534 60.3968ZM137.918 54.1767L142.229 52.0789C143.187 51.6127 143.811 51.0693 144.103 50.4486C144.395 49.8278 144.373 49.1455 144.038 48.4016C143.712 47.6784 143.23 47.2449 142.594 47.1011C141.948 46.9366 141.146 47.0875 140.188 47.5536L135.878 49.6514L137.918 54.1767ZM134.159 45.839L137.98 43.9793C139.855 43.0668 140.457 41.8667 139.787 40.3789C139.116 38.8911 137.843 38.6035 135.968 39.516L132.146 41.3757L134.159 45.839Z" fill="#D99441"/>
<path d="M180.478 41.5574L174.772 43.4699L171.787 39.1288L164.502 41.5707L164.488 46.9167L158.911 48.786L159.737 24.8483L166.378 22.6225L180.478 41.5574ZM164.354 37.4258L169.576 35.6754L164.273 27.8808L164.354 37.4258Z" fill="#D99441"/>
<path d="M204.146 13.4429L198.942 28.9937L200.419 37.0535L194.682 38.1889L193.205 30.1291L182.866 17.6545L188.803 16.4795L193.014 21.9188L195.323 25.2741L196.316 21.2652L198.309 14.5981L204.146 13.4429Z" fill="#D99441"/>
<path d="M225.501 10.9667C227.763 10.8253 229.736 11.1676 231.418 11.9936C233.122 12.7955 234.464 14.0288 235.446 15.6935C236.427 17.3581 236.988 19.4011 237.128 21.8224C237.268 24.2437 236.946 26.3419 236.163 28.1168C235.38 29.8917 234.189 31.2947 232.591 32.3257C231.015 33.3327 229.095 33.9069 226.833 34.0483C224.571 34.1897 222.588 33.8594 220.884 33.0574C219.179 32.2329 217.836 30.9882 216.855 29.3236C215.873 27.6589 215.312 25.6159 215.173 23.1946C215.033 20.7733 215.355 18.6752 216.138 16.9003C216.921 15.1253 218.112 13.7336 219.711 12.7253C221.309 11.6943 223.239 11.1081 225.501 10.9667ZM225.766 15.549C224.68 15.6169 223.779 15.9344 223.062 16.5015C222.346 17.0687 221.825 17.8847 221.5 18.9497C221.175 19.992 221.056 21.2826 221.145 22.8214C221.232 24.3375 221.499 25.604 221.943 26.6209C222.388 27.6378 222.998 28.3832 223.775 28.857C224.552 29.3308 225.483 29.5338 226.569 29.4659C227.655 29.398 228.545 29.0812 229.238 28.5155C229.955 27.9484 230.475 27.1323 230.8 26.0674C231.124 25.0024 231.243 23.7118 231.155 22.1957C231.067 20.6569 230.801 19.3904 230.357 18.3961C229.913 17.3792 229.302 16.6339 228.525 16.1601C227.771 15.6849 226.851 15.4812 225.766 15.549Z" fill="#D99441"/>
<path d="M269.038 12.1876L268.109 25.4491C267.887 28.6146 266.873 30.9249 265.067 32.3799C263.285 33.814 260.744 34.4067 257.444 34.1579C254.166 33.9108 251.735 32.9433 250.149 31.2554C248.565 29.5448 247.884 27.1067 248.105 23.9411L249.035 10.6797L254.9 11.1218L253.964 24.485C253.851 26.0904 254.106 27.3144 254.729 28.1569C255.374 29.0011 256.386 29.4752 257.765 29.5791C259.166 29.6848 260.234 29.3674 260.967 28.6272C261.723 27.8886 262.158 26.7166 262.27 25.1112L263.207 11.748L269.038 12.1876Z" fill="#D99441"/>
<path d="M290.797 15.5263C292.839 15.9482 294.575 16.6424 296.006 17.609C297.462 18.5578 298.65 19.7637 299.57 21.2265L296.096 24.3622C295.333 23.1632 294.444 22.2042 293.428 21.4852C292.438 20.7485 291.244 20.2357 289.846 19.9469C289.025 19.7772 288.342 19.7287 287.797 19.8013C287.252 19.8739 286.839 20.0431 286.557 20.309C286.276 20.5748 286.096 20.908 286.02 21.3087C285.93 21.7762 286.064 22.2205 286.422 22.6415C286.806 23.0449 287.465 23.4588 288.399 23.8831L291.935 25.4814C294.035 26.4474 295.501 27.5256 296.334 28.716C297.168 29.9064 297.429 31.3142 297.117 32.9393C296.818 34.4976 296.165 35.7396 295.157 36.6653C294.153 37.5688 292.898 38.1544 291.393 38.422C289.892 38.6674 288.243 38.6044 286.445 38.233C284.98 37.9303 283.611 37.4856 282.339 36.8988C281.071 36.2898 279.962 35.5747 279.012 34.7535C278.061 33.9324 277.295 33.0566 276.711 32.1261L280.211 28.8569C280.642 29.6171 281.209 30.3358 281.909 31.0128C282.637 31.6723 283.45 32.2453 284.349 32.7318C285.27 33.223 286.231 33.5717 287.229 33.7781C288.006 33.9386 288.665 33.9936 289.205 33.9433C289.768 33.8975 290.201 33.744 290.505 33.4828C290.809 33.2215 291.002 32.8794 291.083 32.4565C291.172 31.989 291.081 31.565 290.807 31.1846C290.538 30.7819 289.959 30.3729 289.069 29.9577L285.18 28.217C283.992 27.6708 282.955 27.0631 282.068 26.3939C281.207 25.7069 280.576 24.9055 280.175 23.9894C279.778 23.0511 279.697 21.9698 279.931 20.7454C280.196 19.3652 280.808 18.2187 281.768 17.3061C282.731 16.3712 283.983 15.7388 285.523 15.409C287.064 15.0791 288.821 15.1182 290.797 15.5263Z" fill="#D99441"/>
<path d="M318.723 47.0239L326.845 26.1055L336.912 30.321C339.455 31.4102 341.144 32.6946 341.979 34.1744C342.822 35.633 342.891 37.2709 342.186 39.088C341.726 40.2713 340.983 41.1516 339.957 41.729C338.939 42.2853 337.674 42.382 336.162 42.0191L336.15 42.0508C337.657 42.9274 338.62 43.982 339.041 45.2145C339.491 46.4347 339.47 47.6786 338.978 48.9464C338.28 50.7424 337.111 51.8743 335.471 52.3421C333.84 52.7888 331.769 52.4869 329.26 51.4363L318.723 47.0239ZM325.418 45.3688L329.84 47.2204C330.823 47.6319 331.632 47.7376 332.269 47.5375C332.906 47.3374 333.372 46.857 333.667 46.0963C333.954 45.3568 333.931 44.6962 333.598 44.1145C333.273 43.5117 332.619 43.0045 331.637 42.593L327.215 40.7414L325.418 45.3688ZM328.728 36.843L332.649 38.4845C334.572 39.2899 335.829 38.932 336.42 37.4107C337.011 35.8893 336.344 34.7259 334.421 33.9205L330.501 32.279L328.728 36.843Z" fill="#D99441"/>
<path d="M345.429 59.0563L355.973 39.2475L371.129 47.9483L369.004 51.9401L358.92 46.1508L356.779 50.1726L364.799 54.7769L362.802 58.5286L354.782 53.9243L352.625 57.9761L363.093 63.9854L360.969 67.9772L345.429 59.0563Z" fill="#D99441"/>
<path d="M385.102 85.5068L380.292 81.89L381.939 76.7941L375.798 72.176L371.624 75.3715L366.923 71.8364L386.059 58.1683L391.657 62.3777L385.102 85.5068ZM378.942 69.5665L383.345 72.8768L386.335 63.7744L378.942 69.5665Z" fill="#D99441"/>
<path d="M421.45 89.1064L406.351 105.706L401.716 101.158L404.908 87.2968L405.937 83.6413L405.913 83.6175L403.219 86.7812L395.6 95.1566L391.912 91.5368L407.011 74.9369L411.646 79.4854L408.453 93.3464L407.425 97.002L407.449 97.0258L410.143 93.8621L417.762 85.4867L421.45 89.1064Z" fill="#D99441"/>
<path d="M413.884 114.357L430.954 99.7898L441.795 113.497L438.355 116.432L431.142 107.312L427.676 110.27L433.413 117.523L430.18 120.282L424.443 113.028L420.952 116.008L428.439 125.475L424.999 128.41L413.884 114.357Z" fill="#D99441"/>
<path d="M454.836 133.241C456.231 135.522 456.784 137.641 456.493 139.597C456.234 141.56 455.233 143.116 453.493 144.265C451.582 145.526 449.741 145.859 447.97 145.264C446.199 144.669 444.615 143.231 443.219 140.949L442.68 140.654L440.356 136.854L433.518 141.368L430.519 136.466L449.247 124.104L454.836 133.241ZM445.982 138.108C446.574 139.074 447.206 139.675 447.88 139.908C448.554 140.142 449.308 139.984 450.14 139.435C450.953 138.898 451.402 138.263 451.484 137.53C451.567 136.796 451.312 135.946 450.721 134.98L448.557 131.441L443.818 134.569L445.982 138.108ZM446.753 141.711L441.217 153.956L437.846 148.445L443.049 138.13L446.753 141.711Z" fill="#D99441"/>
<path d="M473.675 170.171L457.607 169.25L450.254 172.867L447.829 167.546L455.181 163.929L464.679 150.432L467.189 155.939L462.978 161.533L460.313 164.7L464.374 164.596L471.208 164.757L473.675 170.171Z" fill="#D99441"/>
</svg>
